<svg width="250" height="250" viewBox="0 0 250 250" fill="none" xmlns="http://www.w3.org/2000/svg">
<path d="M61.2922 194.302C58.1672 192.219 55.4797 189.562 52.3339 185.802C50.7011 183.804 49.083 181.793 47.4797 179.771C42.6568 173.781 39.6151 171.01 36.4797 169.875C35.1604 169.438 33.9419 168.742 32.8958 167.827C31.8496 166.913 30.9971 165.798 30.3884 164.549C29.7797 163.299 29.4271 161.941 29.3514 160.553C29.2757 159.166 29.4784 157.777 29.9475 156.469C30.4167 155.161 31.1428 153.96 32.0831 152.937C33.0235 151.914 34.1591 151.089 35.423 150.512C36.6869 149.934 38.0536 149.615 39.4426 149.574C40.8316 149.532 42.2149 149.769 43.5109 150.271C51.3443 153.083 56.6464 157.927 63.7922 166.812C62.813 165.594 67.3339 171.26 68.3026 172.427C70.2818 174.792 71.7401 176.229 72.8859 176.99C75.0109 178.417 79.0109 179.031 84.8651 178.448C85.1151 174.469 85.8443 170.604 86.9693 167.042C56.0526 159.479 38.5526 139.542 38.5526 100.417C38.5526 87.5 42.4068 75.875 49.5734 66.125C47.3026 56.8125 47.6464 45.552 52.7193 32.875C53.295 31.441 54.1825 30.153 55.3176 29.1044C56.4526 28.0559 57.8067 27.273 59.2818 26.8125C60.1255 26.5625 60.6047 26.4479 61.4484 26.3229C69.813 25.0312 81.6255 28.0937 97.0214 37.7395C106.196 35.5945 115.589 34.5179 125.011 34.5312C134.511 34.5312 143.959 35.6145 152.969 37.7395C168.355 28.0208 180.198 24.9583 188.615 26.3229C189.501 26.4583 190.261 26.6354 190.886 26.8437C192.332 27.3205 193.656 28.1086 194.765 29.1525C195.873 30.1963 196.74 31.4705 197.303 32.8854C202.375 45.552 202.719 56.802 200.448 66.1145C207.646 75.8645 211.469 87.4166 211.469 100.417C211.469 139.552 194.032 159.427 163.115 167C164.417 171.323 165.094 176.146 165.094 181.375C165.094 188.302 165.073 194.906 165.021 202.312C165.021 204.292 165.001 206.417 164.969 209.667C167.309 210.176 169.402 211.475 170.895 213.347C172.389 215.218 173.192 217.547 173.17 219.941C173.148 222.335 172.302 224.649 170.774 226.492C169.247 228.335 167.13 229.596 164.782 230.062C152.907 232.427 144.115 224.521 144.115 214.177L144.136 209.521L144.188 202.177C144.24 194.812 144.271 188.25 144.271 181.375C144.271 174.115 142.355 169.375 139.834 167.198C132.948 161.26 136.438 149.969 145.469 148.958C176.365 145.49 190.636 133.521 190.636 100.417C190.636 90.4687 187.386 82.25 181.126 75.375C179.808 73.9264 178.925 72.1359 178.579 70.2087C178.233 68.2815 178.437 66.2958 179.167 64.4791C180.896 60.1666 181.626 54.5104 180.157 47.6666L180.053 47.6979C174.938 49.1458 168.49 52.2812 160.698 57.5833C159.442 58.436 158.014 59.0036 156.515 59.2465C155.017 59.4894 153.483 59.4017 152.021 58.9895C143.229 56.555 134.145 55.3319 125.021 55.3541C115.751 55.3541 106.563 56.5833 98.0213 59C96.5668 59.4073 95.0411 59.4934 93.55 59.2524C92.0589 59.0114 90.638 58.449 89.3859 57.6041C81.5422 52.3229 75.0734 49.1979 69.9068 47.7395C68.4172 54.5416 69.1568 60.177 70.8755 64.4791C71.6027 66.2953 71.8037 68.2796 71.4555 70.2048C71.1073 72.1299 70.224 73.9181 68.9068 75.3645C62.688 82.1875 59.3964 90.552 59.3964 100.406C59.3964 133.448 73.6776 145.49 104.417 148.948C113.428 149.958 116.938 161.208 110.094 167.156C108.084 168.906 105.615 174.781 105.615 181.365V214.177C105.615 224.437 96.9276 232.146 85.1984 230.094C82.821 229.676 80.6623 228.446 79.0913 226.614C77.5203 224.781 76.6345 222.46 76.5853 220.046C76.5361 217.633 77.3266 215.277 78.8216 213.382C80.3166 211.487 82.4233 210.17 84.7818 209.656V199.344C75.3026 199.979 67.4797 198.427 61.3026 194.292" fill="white"/>
</svg>
