<svg width="250" height="250" viewBox="0 0 250 250" fill="none" xmlns="http://www.w3.org/2000/svg">
<path d="M133.171 183.135C134.264 184.223 135.13 185.517 135.722 186.942C136.313 188.366 136.618 189.893 136.618 191.436C136.618 192.978 136.313 194.505 135.722 195.93C135.13 197.354 134.264 198.648 133.171 199.736L127.37 205.537C116.378 216.529 101.47 222.704 85.925 222.704C70.38 222.704 55.4717 216.529 44.4797 205.537C33.4877 194.545 27.3125 179.637 27.3125 164.092C27.3125 148.547 33.4877 133.638 44.4797 122.646L68.0344 99.1015C78.5958 88.5141 92.8057 82.3655 107.753 81.9152C122.701 81.4649 137.255 86.7471 148.435 96.6797C149.589 97.7056 150.53 98.9489 151.204 100.338C151.877 101.728 152.271 103.237 152.361 104.778C152.452 106.32 152.238 107.864 151.732 109.323C151.226 110.782 150.437 112.127 149.411 113.281C148.385 114.435 147.142 115.376 145.753 116.05C144.363 116.724 142.854 117.117 141.313 117.208C139.771 117.298 138.227 117.085 136.768 116.578C135.309 116.072 133.964 115.284 132.81 114.258C126.106 108.304 117.38 105.137 108.418 105.403C99.4562 105.67 90.9347 109.351 84.5969 115.693L61.0617 139.209C54.4676 145.803 50.763 154.747 50.763 164.072C50.763 173.398 54.4676 182.341 61.0617 188.936C67.6559 195.53 76.5995 199.234 85.925 199.234C95.2506 199.234 104.194 195.53 110.788 188.936L116.589 183.135C117.677 182.045 118.97 181.181 120.393 180.591C121.815 180.001 123.34 179.698 124.88 179.698C126.42 179.698 127.945 180.001 129.368 180.591C130.79 181.181 132.083 182.045 133.171 183.135ZM205.515 44.4629C194.514 33.4878 179.609 27.3242 164.07 27.3242C148.53 27.3242 133.625 33.4878 122.624 44.4629L116.823 50.2636C114.622 52.4651 113.385 55.451 113.385 58.5644C113.385 61.6778 114.622 64.6637 116.823 66.8652C119.025 69.0667 122.011 70.3035 125.124 70.3035C128.238 70.3035 131.224 69.0667 133.425 66.8652L139.226 61.0644C145.82 54.4703 154.764 50.7657 164.089 50.7657C173.415 50.7657 182.358 54.4703 188.952 61.0644C195.547 67.6586 199.251 76.6022 199.251 85.9277C199.251 95.2532 195.547 104.197 188.952 110.791L165.407 134.346C159.064 140.685 150.538 144.361 141.573 144.62C132.609 144.88 123.884 141.704 117.185 135.742C116.031 134.716 114.686 133.928 113.227 133.421C111.768 132.915 110.223 132.701 108.682 132.792C107.14 132.883 105.632 133.276 104.242 133.95C102.852 134.624 101.609 135.565 100.583 136.719C99.5573 137.873 98.7687 139.218 98.2625 140.677C97.7564 142.136 97.5425 143.68 97.6332 145.222C97.7239 146.763 98.1173 148.272 98.791 149.662C99.4648 151.051 100.406 152.294 101.56 153.32C112.731 163.251 127.276 168.536 142.217 168.095C157.157 167.654 171.365 161.519 181.931 150.947L205.486 127.402C216.473 116.404 222.648 101.495 222.653 85.9484C222.659 70.4018 216.495 55.4884 205.515 44.4824V44.4629Z" fill="white"/>
</svg>
