<svg width="250" height="250" viewBox="0 0 250 250" fill="none" xmlns="http://www.w3.org/2000/svg">
<g filter="url(#filter0_d_177_32)">
<path d="M125 218.508C122.547 218.508 120.058 217.836 117.898 216.568L95.3112 202.952C91.9434 201.012 93.5907 200.34 94.6889 199.967C99.1916 198.363 100.107 198.028 104.902 195.23C105.415 194.931 106.074 195.043 106.586 195.379L123.938 205.862C124.56 206.235 125.439 206.235 126.025 205.862L193.638 166.095C194.26 165.722 194.663 164.976 194.663 164.23V84.6959C194.663 83.9125 194.26 83.2037 193.601 82.7934L126.025 43.0639C125.402 42.6908 124.56 42.6908 123.938 43.0639L56.3978 82.8307C55.7389 83.2037 55.3362 83.9498 55.3362 84.7332V164.23C55.3362 164.976 55.7389 165.722 56.3978 166.057L74.921 176.95C84.988 182.061 91.138 176.055 91.138 169.974V91.4854C91.138 90.3662 92.0166 89.5082 93.1148 89.5082H101.681C102.742 89.5082 103.658 90.3662 103.658 91.4854V170.012C103.658 183.665 96.3362 191.499 83.6335 191.499C79.7166 191.499 76.6416 191.499 68.0755 187.172L50.3576 176.764C45.9648 174.19 43.2559 169.378 43.2559 164.192V84.6959C43.2559 79.5479 45.9648 74.6983 50.3576 72.1242L117.898 32.3574C122.181 29.8953 127.855 29.8953 132.101 32.3574L199.715 72.1615C204.108 74.7356 206.817 79.5479 206.817 84.7332V164.23C206.817 169.378 204.108 174.19 199.715 176.801L132.101 216.568C129.942 217.836 127.489 218.508 125 218.508ZM179.581 140.131C179.581 125.246 169.697 121.292 148.941 118.494C127.928 115.659 125.805 114.204 125.805 109.205C125.805 105.064 127.599 99.5432 143.157 99.5432C157.031 99.5432 162.156 102.602 164.279 112.152C164.462 113.047 165.267 113.719 166.183 113.719H174.968C175.517 113.719 176.03 113.495 176.396 113.085C176.762 112.674 176.945 112.115 176.909 111.555C175.554 95.1039 164.828 87.4565 143.157 87.4565C123.865 87.4565 112.37 95.7381 112.37 109.653C112.37 124.724 123.828 128.902 142.315 130.767C164.462 132.968 166.183 136.288 166.183 140.728C166.183 148.412 160.106 151.695 145.866 151.695C127.965 151.695 124.048 147.107 122.73 138.042C122.584 137.072 121.778 136.363 120.79 136.363H112.041C110.942 136.363 110.101 137.258 110.101 138.34C110.101 149.942 116.287 163.782 145.902 163.782C167.281 163.745 179.581 155.127 179.581 140.131V140.131Z" fill="#0FA958"/>
</g>
<defs>
<filter id="filter0_d_177_32" x="-4" y="0" width="258" height="258" filterUnits="userSpaceOnUse" color-interpolation-filters="sRGB">
<feFlood flood-opacity="0" result="BackgroundImageFix"/>
<feColorMatrix in="SourceAlpha" type="matrix" values="0 0 0 0 0 0 0 0 0 0 0 0 0 0 0 0 0 0 127 0" result="hardAlpha"/>
<feOffset dy="4"/>
<feGaussianBlur stdDeviation="2"/>
<feComposite in2="hardAlpha" operator="out"/>
<feColorMatrix type="matrix" values="0 0 0 0 0 0 0 0 0 0 0 0 0 0 0 0 0 0 0.25 0"/>
<feBlend mode="normal" in2="BackgroundImageFix" result="effect1_dropShadow_177_32"/>
<feBlend mode="normal" in="SourceGraphic" in2="effect1_dropShadow_177_32" result="shape"/>
</filter>
</defs>
</svg>
