<svg width="250" height="250" viewBox="0 0 250 250" fill="none" xmlns="http://www.w3.org/2000/svg">
<g filter="url(#filter0_d_177_2)">
<path d="M125 139.375C121.188 139.375 117.531 137.861 114.835 135.165C112.139 132.469 110.625 128.813 110.625 125C110.625 121.188 112.139 117.531 114.835 114.835C117.531 112.14 121.188 110.625 125 110.625C128.812 110.625 132.469 112.14 135.165 114.835C137.86 117.531 139.375 121.188 139.375 125C139.375 128.813 137.86 132.469 135.165 135.165C132.469 137.861 128.812 139.375 125 139.375ZM119.94 168.068C121.617 170.08 123.304 172.035 125 173.904C126.696 172.035 128.383 170.09 130.06 168.068C126.687 168.139 123.313 168.139 119.94 168.068V168.068ZM100.821 166.87C93.4618 166.104 86.1511 164.926 78.9233 163.343C78.2046 166.697 77.6583 169.955 77.2942 173.08C75.4733 188.25 78.0129 197.469 81.875 199.693C85.7371 201.925 94.985 199.51 107.223 190.358C109.743 188.47 112.283 186.372 114.832 184.081C109.844 178.61 105.166 172.864 100.821 166.87V166.87ZM171.077 163.343C163.851 164.937 156.54 166.114 149.179 166.87C144.834 172.864 140.156 178.61 135.168 184.081C137.717 186.381 140.257 188.47 142.777 190.358C155.015 199.51 164.263 201.925 168.125 199.693C171.987 197.469 174.517 188.25 172.715 173.08C172.32 169.811 171.776 166.562 171.086 163.343H171.077ZM184.972 159.634C190.502 184.925 187.598 205.059 175.312 212.151C163.027 219.243 144.138 211.691 125 194.259C105.862 211.691 86.9733 219.233 74.6875 212.141C62.4017 205.05 59.4979 184.925 65.0179 159.625C40.3504 151.776 24.375 139.183 24.375 125C24.375 110.817 40.3504 98.2338 65.0179 90.3659C59.4979 65.0755 62.4017 44.9409 74.6875 37.8492C86.9733 30.7576 105.862 38.3092 125 55.7413C144.138 38.3092 163.027 30.7671 175.312 37.8588C187.598 44.9505 190.502 65.0755 184.982 90.3755C209.65 98.2242 225.625 110.817 225.625 125C225.625 139.183 209.65 151.766 184.982 159.634H184.972ZM114.822 65.9188C112.385 63.7128 109.85 61.6183 107.223 59.6417C94.985 50.4896 85.7371 48.0746 81.875 50.3076C78.0129 52.5309 75.4829 61.75 77.2846 76.9205C77.6679 80.0542 78.2046 83.303 78.9137 86.6571C86.1446 85.0733 93.4586 83.8959 100.821 83.1305C105.373 76.8726 110.069 71.113 114.832 65.9188H114.822ZM149.179 83.1305C156.865 83.9355 164.205 85.1334 171.077 86.6571C171.795 83.303 172.342 80.0446 172.706 76.9205C174.527 61.75 171.987 52.5309 168.125 50.3076C164.263 48.0746 155.015 50.4896 142.777 59.6417C140.147 61.618 137.608 63.7126 135.168 65.9188C139.931 71.113 144.627 76.8726 149.179 83.1305V83.1305ZM130.06 81.9326C128.383 79.9201 126.696 77.9651 125 76.0963C123.304 77.9651 121.617 79.9105 119.94 81.9326C123.313 81.861 126.687 81.861 130.06 81.9326V81.9326ZM90.2317 150.913C88.4833 148.03 86.7962 145.109 85.1717 142.154C84.2612 144.617 83.4179 147.042 82.6512 149.447C85.1142 149.984 87.6442 150.473 90.2221 150.913H90.2317ZM108.747 153.156C119.567 153.96 130.433 153.96 141.253 153.156C147.36 144.185 152.793 134.774 157.507 125C152.793 115.226 147.36 105.815 141.253 96.8442C130.433 96.0405 119.567 96.0405 108.747 96.8442C102.64 105.815 97.2074 115.226 92.4933 125C97.2074 134.774 102.64 144.185 108.747 153.156V153.156ZM164.828 107.846C165.739 105.383 166.582 102.958 167.349 100.553C164.836 100.008 162.312 99.5189 159.778 99.0867C161.523 101.97 163.207 104.891 164.828 107.846ZM68.7458 104.271C65.4875 105.325 62.4017 106.475 59.5075 107.721C45.4679 113.74 38.75 120.544 38.75 125C38.75 129.456 45.4583 136.26 59.5075 142.279C62.4017 143.525 65.4875 144.675 68.7458 145.729C70.8733 139.02 73.5087 132.063 76.6521 125C73.6316 118.244 70.9921 111.323 68.7458 104.271V104.271ZM82.6417 100.553C83.4179 102.949 84.2612 105.383 85.1717 107.836C86.7963 104.884 88.4834 101.967 90.2317 99.0867C87.6442 99.5275 85.1142 100.016 82.6512 100.553H82.6417ZM181.254 145.729C184.513 144.675 187.598 143.525 190.492 142.279C204.532 136.26 211.25 129.456 211.25 125C211.25 120.544 204.542 113.74 190.492 107.721C187.467 106.432 184.384 105.281 181.254 104.271C179.127 110.98 176.491 117.937 173.348 125C176.491 132.063 179.127 139.011 181.254 145.729V145.729ZM167.358 149.447C166.566 147.002 165.723 144.574 164.828 142.164C163.204 145.116 161.517 148.033 159.768 150.913C162.356 150.473 164.886 149.984 167.349 149.447H167.358Z" fill="#207F9D"/>
</g>
<defs>
<filter id="filter0_d_177_2" x="-4" y="0" width="258" height="258" filterUnits="userSpaceOnUse" color-interpolation-filters="sRGB">
<feFlood flood-opacity="0" result="BackgroundImageFix"/>
<feColorMatrix in="SourceAlpha" type="matrix" values="0 0 0 0 0 0 0 0 0 0 0 0 0 0 0 0 0 0 127 0" result="hardAlpha"/>
<feOffset dy="4"/>
<feGaussianBlur stdDeviation="2"/>
<feComposite in2="hardAlpha" operator="out"/>
<feColorMatrix type="matrix" values="0 0 0 0 0 0 0 0 0 0 0 0 0 0 0 0 0 0 0.25 0"/>
<feBlend mode="normal" in2="BackgroundImageFix" result="effect1_dropShadow_177_2"/>
<feBlend mode="normal" in="SourceGraphic" in2="effect1_dropShadow_177_2" result="shape"/>
</filter>
</defs>
</svg>
