<svg width="250" height="250" viewBox="0 0 250 250" fill="none" xmlns="http://www.w3.org/2000/svg">
<g filter="url(#filter0_d_177_23)">
<path d="M204.3 38.5H45.7C41.1713 38.5 37.5 42.1713 37.5 46.7V205.3C37.5 209.829 41.1713 213.5 45.7 213.5H204.3C208.829 213.5 212.5 209.829 212.5 205.3V46.7C212.5 42.1713 208.829 38.5 204.3 38.5Z" fill="#3178C6"/>
<path fill-rule="evenodd" clip-rule="evenodd" d="M139.032 174.494V193.669C142.516 195.388 146.229 196.599 150.057 197.263C154.481 198.079 158.971 198.481 163.47 198.463C167.854 198.483 172.228 198.041 176.52 197.144C180.373 196.365 184.049 194.882 187.363 192.769C190.44 190.782 192.977 188.064 194.745 184.856C197.911 178.215 198.329 170.592 195.907 163.644C194.885 161.046 193.363 158.674 191.426 156.663C189.347 154.524 186.985 152.68 184.407 151.181C181.439 149.443 178.354 147.91 175.176 146.594C172.676 145.556 170.426 144.548 168.426 143.569C166.649 142.718 164.949 141.717 163.345 140.575C162.088 139.694 160.996 138.598 160.12 137.338C159.362 136.193 158.968 134.847 158.988 133.475C158.972 132.212 159.323 130.972 160.001 129.906C160.736 128.791 161.718 127.859 162.87 127.181C164.277 126.352 165.81 125.755 167.407 125.413C169.368 124.977 171.373 124.767 173.382 124.788C175.072 124.793 176.759 124.914 178.432 125.15C180.239 125.394 182.027 125.764 183.782 126.256C185.568 126.751 187.314 127.378 189.007 128.131C190.65 128.864 192.221 129.746 193.701 130.769V112.875C190.62 111.71 187.426 110.872 184.17 110.375C180.238 109.803 176.268 109.533 172.295 109.569C167.952 109.545 163.621 110.038 159.395 111.038C155.574 111.91 151.942 113.462 148.67 115.619C145.63 117.644 143.12 120.368 141.351 123.563C139.476 127.11 138.548 131.082 138.657 135.094C138.519 140.399 140.266 145.581 143.588 149.719C147.664 154.307 152.804 157.824 158.557 159.963C161.182 161.046 163.63 162.106 165.901 163.144C167.95 164.055 169.919 165.136 171.788 166.375C173.296 167.356 174.62 168.593 175.701 170.031C176.651 171.336 177.155 172.911 177.138 174.525C177.147 175.734 176.836 176.924 176.238 177.975C175.574 179.104 174.64 180.051 173.52 180.731C172.118 181.586 170.585 182.202 168.982 182.556C166.894 183.023 164.759 183.243 162.62 183.213C158.421 183.205 154.257 182.465 150.313 181.025C146.193 179.538 142.373 177.326 139.032 174.494V174.494ZM106.82 126.756H131.82V110.963H62.1133V126.756H87.0008V197.094H106.82V126.756Z" fill="white"/>
</g>
<defs>
<filter id="filter0_d_177_23" x="-4" y="0" width="258" height="258" filterUnits="userSpaceOnUse" color-interpolation-filters="sRGB">
<feFlood flood-opacity="0" result="BackgroundImageFix"/>
<feColorMatrix in="SourceAlpha" type="matrix" values="0 0 0 0 0 0 0 0 0 0 0 0 0 0 0 0 0 0 127 0" result="hardAlpha"/>
<feOffset dy="4"/>
<feGaussianBlur stdDeviation="2"/>
<feComposite in2="hardAlpha" operator="out"/>
<feColorMatrix type="matrix" values="0 0 0 0 0 0 0 0 0 0 0 0 0 0 0 0 0 0 0.25 0"/>
<feBlend mode="normal" in2="BackgroundImageFix" result="effect1_dropShadow_177_23"/>
<feBlend mode="normal" in="SourceGraphic" in2="effect1_dropShadow_177_23" result="shape"/>
</filter>
</defs>
</svg>
